<svg width="62" height="62" viewBox="0 0 62 62" fill="none" xmlns="http://www.w3.org/2000/svg">
<path d="M25.1875 4.84375C21.8945 7.16797 16.7578 9.6875 11.9141 11.2383L3.875 13.6602V20.2461C3.875 27.8047 5.8125 36.2305 9.30078 43.3047C12.3047 49.6016 20.7305 57.4453 26.6406 59.3828C30.6133 60.7422 31.3867 60.7422 35.3594 59.3828C41.2695 57.4453 49.6953 49.6016 52.6992 43.3047C56.1875 36.2305 58.125 27.8047 58.125 20.1484V13.6602L51.1484 11.625C46.9844 10.3672 41.4609 7.75 37.6836 5.23047C34.1953 2.90625 31.0977 0.96875 30.9023 0.96875C30.7109 0.96875 28.0938 2.71094 25.1875 4.84375ZM36.6172 8.13672C41.4609 11.3359 47.1797 13.8516 52.6016 14.918C55.0234 15.5 55.2188 15.8867 55.2188 20.6328C55.1211 36.3281 47.7578 50.1797 36.2305 55.8008L31 58.3203L25.7695 55.8008C14.2422 50.1797 6.87891 36.3281 6.78125 20.6328C6.78125 15.8867 6.97656 15.5 9.49219 14.918C14.8203 13.8516 20.5391 11.3359 24.9922 8.23438C27.5117 6.49219 30.0312 5.03906 30.6133 4.94141C31.2891 4.84375 34.0039 6.29688 36.6172 8.13672Z" fill="#8A90FF"/>
<path d="M33.7109 28.7735L26.2539 36.2306L23.25 33.422C20.9258 31.1954 20.0547 30.9024 19.1797 31.7735C18.2109 32.7423 18.8906 33.9063 22.0859 37.0079L26.1562 41.172L34.875 32.4532C39.7187 27.7071 43.4961 23.3477 43.3047 22.8634C42.5273 20.6329 40.6875 21.797 33.7109 28.7735Z" fill="#8A90FF"/>
</svg>
