<svg width="62" height="62" viewBox="0 0 62 62" fill="none" xmlns="http://www.w3.org/2000/svg">
<path d="M1.16406 6.97656C0.386719 7.75 0 13.4648 0 26.1562V44.1758L3.19531 47.5664L6.29688 50.957L30.5156 53.5703C43.8828 55.0234 55.2188 56.1875 55.8984 56.1875C56.5742 56.1875 57.4453 55.4141 58.0273 54.5391C59.1914 52.3125 62.2891 18.6953 61.5156 17.3398C61.1289 16.7578 59.8672 15.9844 58.6094 15.5C57.0586 14.918 56.2852 13.6602 55.8008 10.8516C55.5078 8.62109 54.5391 6.78125 53.668 6.39453C52.8945 6.10156 40.9766 5.8125 27.2227 5.8125C9.10547 5.8125 2.03516 6.10156 1.16406 6.97656ZM53.0859 9.39844C53.3789 10.3672 47.8555 10.6562 27.707 10.6562C13.5625 10.6562 1.9375 10.2695 1.9375 9.88281C1.9375 9.39844 2.22656 8.71875 2.61719 8.42969C3.00391 8.03906 14.3359 7.84766 27.9961 7.94531C46.6953 8.13672 52.6992 8.52344 53.0859 9.39844ZM53.2812 15.9844V19.375H1.9375V12.5938H53.2812V15.9844ZM58.8984 17.7266C60.0625 19.0859 57.543 51.0547 56.1875 53.2812C55.7031 54.0547 49.2109 53.668 32.8398 51.8281C20.3438 50.4727 9.10547 49.0195 7.75 48.6328C6.39453 48.2422 16.1797 47.7578 29.3516 47.4688C51.7305 46.9844 53.5703 46.8867 54.832 45.1445C55.8008 43.6914 56.1875 39.8164 56.1875 29.8359C56.1875 16.9531 56.6719 15.0156 58.8984 17.7266ZM53.2812 32.9375V44.5625L27.8984 44.3672L2.42188 44.0781L2.13281 32.6484L1.83984 21.3125H53.2812V32.9375Z" fill="#8A90FF"/>
<path d="M4.35936 26.1562C3.97264 26.7383 5.81248 27.125 9.20311 27.125C12.5937 27.125 14.4336 26.7383 14.0469 26.1562C13.7578 25.5742 11.5273 25.1875 9.20311 25.1875C6.87889 25.1875 4.64842 25.5742 4.35936 26.1562Z" fill="#8A90FF"/>
<path d="M16.4688 26.1562C16.4688 26.6406 18.8906 27.125 21.8945 27.125C25.1875 27.125 27.0273 26.7383 26.6406 26.1562C26.3516 25.5742 23.9297 25.1875 21.2148 25.1875C18.6016 25.1875 16.4688 25.5742 16.4688 26.1562Z" fill="#8A90FF"/>
<path d="M4.35936 30.0313C4.0703 30.5157 4.35936 31.2891 5.1328 31.5821C7.36327 32.4532 18.8906 31.5821 18.8906 30.5157C18.8906 29.1602 5.1328 28.6758 4.35936 30.0313Z" fill="#8A90FF"/>
<path d="M21.7969 29.9336C21.1172 31.0977 24.8008 32.3555 26.1563 31.4844C26.7383 31.0977 26.9297 30.418 26.6406 29.9336C25.8672 28.7734 22.5703 28.7734 21.7969 29.9336Z" fill="#8A90FF"/>
<path d="M32.6484 29.6446C32.2578 30.0314 31.9688 32.6486 31.9688 35.5548V40.6876H50.4727L50.1797 35.0704L49.8906 29.547L41.6562 29.2579C37.1016 29.1603 33.0352 29.2579 32.6484 29.6446ZM48.4375 35.3595V38.7501H33.9062V31.9689H48.4375V35.3595Z" fill="#8A90FF"/>
</svg>
