<svg width="62" height="62" viewBox="0 0 62 62" fill="none" xmlns="http://www.w3.org/2000/svg">
<path d="M15.9844 14.2422C0.386719 22.0859 -0.0976562 22.3789 1.55078 22.9609C2.13281 23.1523 3.48828 23.9297 4.45703 24.6055C6.19922 25.9609 6.19922 26.0586 3.58594 27.2227C-0.0976562 28.8672 -0.0976562 33.1328 3.58594 34.7773C6.19922 35.9414 6.19922 36.0391 4.45703 37.3945C3.48828 38.0703 2.13281 38.8477 1.55078 39.0391C-0.0976562 39.6211 0.386719 39.9141 16.2734 47.8555L31 55.2187L45.8203 47.8555C61.6133 39.9141 62.0977 39.6211 60.4492 39.0391C59.8672 38.8477 58.5117 38.0703 57.543 37.3945C55.8008 36.0391 55.8008 35.9414 58.4141 34.7773C62.0977 33.1328 62.0977 28.8672 58.4141 27.2227C55.8008 26.0586 55.8008 25.9609 57.543 24.6055C58.5117 23.9297 59.8672 23.1523 60.4492 22.9609C61.0312 22.7656 61.3203 22.2812 61.0312 21.9922C60.5469 21.5078 31.1953 6.78125 30.8047 6.8789C30.6133 6.8789 24.0234 10.1719 15.9844 14.2422ZM44.0781 15.2109C51.2461 18.793 57.1562 21.9922 57.1562 22.2812C57.1562 22.5703 51.2461 25.7695 44.0781 29.3516L31 35.8437L17.9219 29.3516C10.7539 25.7695 4.84375 22.5703 4.84375 22.2812C4.84375 21.8945 29.3516 9.10546 30.7109 8.8164C30.9023 8.71875 36.9102 11.625 44.0781 15.2109ZM20.3438 32.4531L31 37.7812L41.7539 32.3555C49.5039 28.5781 53.1836 27.125 54.832 27.5117C56.0898 27.8984 57.1562 28.4805 57.1562 28.8672C57.1562 29.2578 51.2461 32.5508 44.0781 36.1328L31 42.625L18.1172 36.2305C11.1406 32.6484 5.13281 29.6445 4.84375 29.3516C4.26172 28.7734 6.97656 27.125 8.52344 27.125C9.20312 27.125 14.5312 29.5469 20.3438 32.4531ZM16.7578 37.3945C30.7109 44.3672 30.6133 44.3672 29.8359 45.1445C29.1602 45.7266 2.90625 32.7422 2.90625 31.7734C2.90625 30.5156 3.29297 30.7109 16.7578 37.3945ZM59.0938 31.7734C59.0938 32.7422 32.8398 45.7266 32.1641 45.1445C31.3867 44.3672 31.2891 44.3672 45.0469 37.4922C58.0273 30.9023 59.0938 30.5156 59.0938 31.7734ZM20.3438 43.1094L31 48.4375L41.7539 43.0117C49.5039 39.2344 53.1836 37.7812 54.832 38.168C56.0898 38.5547 57.1562 39.1367 57.1562 39.5234C57.1562 39.9141 51.2461 43.207 44.0781 46.7891L31 53.2812L18.1172 46.8867C11.1406 43.3047 5.13281 40.3008 4.84375 40.0078C4.26172 39.4297 6.97656 37.7812 8.52344 37.7812C9.20312 37.7812 14.5312 40.2031 20.3438 43.1094Z" fill="#8A90FF"/>
</svg>
