<svg width="62" height="62" viewBox="0 0 62 62" fill="none" xmlns="http://www.w3.org/2000/svg">
<path d="M31 8.33195C26.9297 10.0741 6.78125 29.8359 6.78125 32.0663C6.78125 33.6171 13.7578 40.6874 15.3047 40.6874C15.6953 40.6874 21.1172 35.5546 27.3203 29.2577C36.5234 20.0546 38.8477 17.1484 39.7188 13.7577C41.4609 6.97648 38.4609 5.13273 31 8.33195ZM38.2656 9.68742C39.332 11.3359 37.7812 12.789 36.2305 11.5273C35.457 10.9452 34.875 10.0741 34.875 9.58976C34.875 8.42961 37.4922 8.52336 38.2656 9.68742ZM34.5859 11.8202C36.8125 13.9491 37.4922 16.8554 36.0391 17.8241C35.5547 18.1171 33.7109 16.7577 31.8711 14.9179C29.1602 12.1093 28.8672 11.4296 30.0312 10.6562C31.9688 9.39836 32.0664 9.39836 34.5859 11.8202ZM28.0938 14.3359C28.0938 15.6952 17.5352 25.5741 16.7578 24.8984C16.3711 24.5077 18.5039 21.7968 21.3125 18.8905C26.3516 13.8515 28.0938 12.5937 28.0938 14.3359ZM31 17.2421C31 18.6015 20.4414 28.4804 19.6641 27.8046C19.2773 27.414 21.4102 24.703 24.2188 21.7968C29.2578 16.7577 31 15.4999 31 17.2421ZM33.9062 20.1484C33.9062 21.5077 23.6367 31.0976 22.9609 30.3202C22.5703 29.9335 24.5078 27.3202 27.3203 24.5077C32.1641 19.664 33.9062 18.4062 33.9062 20.1484ZM21.0234 32.5507C20.0547 33.5194 13.4648 27.0273 14.2422 25.8671C14.5313 25.3827 16.3711 26.5429 18.2109 28.4804C20.1484 30.3202 21.4102 32.2577 21.0234 32.5507ZM17.3398 37.1015C15.2109 38.8476 15.1133 38.7499 11.7227 35.4569C8.42969 32.0663 8.33203 32.0663 10.1719 30.0312L12.0117 27.996L15.6953 31.6796L19.4727 35.3593L17.3398 37.1015Z" fill="#8A90FF"/>
<path d="M32.6484 30.7109C23.7344 39.7188 15.8867 47.7578 15.4023 48.7266C14.6289 49.9883 14.8203 51.1484 15.9844 52.8945C17.4375 55.2188 17.5351 55.2188 34.0039 55.2188C50.1797 55.2188 50.4726 55.2188 52.7969 52.7969C55.2187 50.4727 55.2187 50.1797 55.2187 34.1016C55.2187 19.4727 55.0234 17.5352 53.4766 16.1797C52.5078 15.2109 51.0547 14.5312 50.375 14.5312C49.6016 14.5312 41.6562 21.7969 32.6484 30.7109ZM53.2812 34.1953C53.2812 47.2734 52.9922 49.9883 51.6328 51.5391C50.2773 53.0859 48.3398 53.2812 34.3906 53.2812C16.1797 53.2812 14.6289 52.6992 18.9883 47.5664C21.0234 45.1445 21.7969 44.7578 22.8633 45.6289C24.6055 47.082 25.7695 46.0156 24.4141 44.2734C22.8633 42.4297 24.0234 41.5586 27.0273 42.3359C29.3516 42.9141 29.4492 42.8203 28.1914 41.2695C26.2539 38.9453 28.2891 36.9102 30.6133 38.8477C32.1641 40.1055 32.2578 40.0078 31.6797 37.6836C30.9023 34.6797 31.7734 33.5195 33.6172 35.0703C35.3594 36.4258 36.4258 35.3594 35.0703 33.6172C33.5195 31.7734 34.6797 30.9023 37.6836 31.6797C40.0078 32.2578 40.1055 32.1641 38.8476 30.6133C36.9101 28.2891 38.9453 26.2539 41.2695 28.1914C42.8203 29.4492 42.9141 29.3516 42.3359 27.0273C41.5586 24.0234 42.4297 22.8633 44.2734 24.4141C46.0156 25.7695 47.082 24.6055 45.6289 22.8633C44.7578 21.7969 45.1445 21.0234 47.5664 18.9883C52.6992 14.6289 53.2812 16.1797 53.2812 34.1953Z" fill="#8A90FF"/>
<path d="M37.0078 37.1016C32.1641 42.043 28.0938 46.4023 28.0938 46.7891C28.0938 47.1797 32.4531 47.4688 37.7812 47.4688H47.4688V37.7812C47.4688 32.4531 47.1797 28.0938 46.6953 28.0938C46.3047 28.0938 41.9453 32.1641 37.0078 37.1016ZM45.5312 38.75V45.5312H31.582L38.2656 38.75C41.9453 34.9727 45.1445 31.9688 45.2422 31.9688C45.4336 31.9688 45.5312 34.9727 45.5312 38.75Z" fill="#8A90FF"/>
</svg>
