<svg width="62" height="62" viewBox="0 0 62 62" fill="none" xmlns="http://www.w3.org/2000/svg">
<g clip-path="url(#clip0_129_2052)">
<path d="M30.418 1.35543C30.1289 2.03512 30.418 3.77731 31 5.32809C31.9688 7.84762 31.7734 8.33199 28.4805 10.9453C24.5078 14.2421 21.4102 20.3437 21.3125 24.8007C21.3125 28.4804 24.6055 33.6171 28.9648 36.5234C36.8125 41.8515 48.9219 37.1015 51.4414 27.8984C52.8945 22.2812 51.0547 17.1484 45.8203 12.0117C41.6562 7.94527 41.4609 7.4609 42.5273 5.13277C43.3984 3.29293 43.3984 2.32418 42.625 1.55074C41.0742 -3.8743e-05 31 -0.195351 30.418 1.35543ZM40.4922 4.74606C39.4297 7.74996 38.168 8.62105 35.8438 8.03902C34.4883 7.65231 31.9688 4.07027 31.9688 2.61715C31.9688 2.42184 34.1016 2.32418 36.7148 2.32418C41.3672 2.32418 41.4609 2.32418 40.4922 4.74606ZM44.6602 13.5625C46.6953 15.5 48.7266 18.6953 49.4062 21.0234C50.4727 24.5078 50.375 25.4765 48.8242 28.6757C43.8828 38.75 30.1289 39.4296 24.9922 29.9336C21.8945 24.1211 23.3477 18.1171 29.2578 12.9804C34.1953 8.62105 39.7188 8.81637 44.6602 13.5625Z" fill="#8A90FF"/>
<path d="M31.3867 18.7929C30.5156 21.1172 31.7734 23.4453 33.6172 23.0547C34.7773 22.8632 35.3594 21.8945 35.3594 20.3437C35.3594 17.5351 32.2578 16.3711 31.3867 18.7929Z" fill="#8A90FF"/>
<path d="M35.8438 22.7656C33.5195 25.0898 31.8711 27.414 32.2578 27.8047C33.0352 28.4804 41.6563 20.539 41.6563 19.1797C41.6563 17.5351 39.9141 18.6015 35.8438 22.7656Z" fill="#8A90FF"/>
<path d="M38.4609 24.8983C37.2969 26.0585 37.7813 28.8671 39.1367 29.3514C40.9766 30.0311 43.0117 27.6093 42.2383 25.6718C41.6563 24.2186 39.5234 23.7343 38.4609 24.8983Z" fill="#8A90FF"/>
<path d="M1.16406 50.0859L1.45312 60.5469L7.16797 60.8359C11.5273 61.0312 13.0781 60.7422 13.9492 59.4805C15.0156 58.0273 15.6953 58.0273 22.3789 59.9648C26.4453 61.1289 30.8047 62 32.1641 62C33.6172 62 40.3984 59.5781 47.3711 56.5742C60.4492 50.957 62.8711 48.9219 59.7734 45.8203C58.4141 44.4648 57.543 44.4648 51.3438 46.0156L44.4648 47.6641L33.7109 44.5625C25.7695 42.2383 21.9922 41.5586 18.8906 41.9453C15.6953 42.4297 14.6289 42.2383 14.1445 41.1719C13.7578 40.1055 11.9141 39.7188 7.26562 39.7188H0.871094L1.16406 50.0859ZM12.5938 50.375V59.0938H2.90625V41.6562H12.5938V50.375ZM33.3242 46.3047C47.082 50.4727 45.2422 53.0859 30.9023 49.793C24.8984 48.4375 21.9922 48.4375 23.3477 49.8906C24.1211 50.5703 37.6836 53.2812 40.6875 53.2812C42.5273 53.2812 43.6914 52.6992 44.0781 51.4414C44.7578 49.2109 56.8672 45.8203 58.5117 47.4688C59.0938 48.0508 59.0938 48.7266 58.5117 49.3086C56.8672 50.8594 34.1953 60.0625 31.8711 60.0625C30.7109 60.0625 26.2539 59.0938 22.0859 57.9297L14.5312 55.7031V50.1797C14.5312 45.2422 14.7266 44.6602 16.7578 44.2734C21.4102 43.3984 24.9922 43.7891 33.3242 46.3047Z" fill="#8A90FF"/>
</g>
<defs>
<clipPath id="clip0_129_2052">
<rect width="62" height="62" fill="white"/>
</clipPath>
</defs>
</svg>
