<svg width="62" height="62" viewBox="0 0 62 62" fill="none" xmlns="http://www.w3.org/2000/svg">
<g clip-path="url(#clip0_129_2074)">
<path d="M2.51951 3.97266L-1.70413e-05 5.91016V28.6758C-1.70413e-05 55.9922 -0.289079 55.2188 10.7539 55.2188C16.1797 55.2188 18.4062 55.7031 21.1172 57.3516C25.3828 59.9648 33.4219 60.2578 37.0078 57.9297C39.2344 56.4766 39.4297 56.4766 40.4922 58.2227C41.5586 59.7734 42.914 60.0625 50.7617 60.0625C56.8672 60.0625 60.1601 59.6758 60.8359 58.8047C61.3203 58.125 61.7109 50.957 61.7109 42.1406C61.7109 33.3242 61.3203 26.1562 60.8359 25.3828C60.1601 24.6055 57.1562 24.2188 52.2148 24.2188H44.5625V15.5C44.5625 7.46094 44.3672 6.49219 42.1406 4.35938C39.8164 1.9375 39.6211 1.9375 22.4765 1.9375C6.39451 1.9375 4.94139 2.13281 2.51951 3.97266ZM40.8828 5.52344C42.3359 6.78125 42.625 8.62109 42.625 15.5C42.625 21.8945 42.2383 24.3164 41.1719 25.1875C40.3984 25.8672 39.7187 27.4141 39.7187 28.6758C39.7187 32.1641 37.0078 30.5156 36.6172 26.8359C36.3281 23.5391 34.5859 22.668 30.418 23.6367C28.8672 24.0234 28.0937 24.8984 28.0937 26.4453C28.0937 28.4805 27.9961 28.4805 26.8359 26.1562C25.8672 24.3164 24.8984 23.7344 22.3789 23.7344C18.1172 23.7344 16.3711 26.2539 18.6953 28.8672C20.2461 30.6133 20.2461 30.8047 18.793 32.0664C17.7265 32.9375 15.5 33.3242 12.5937 33.1328C9.0078 32.8398 7.84764 33.1328 7.36326 34.3906C6.49217 36.6172 8.42967 38.75 11.2383 38.75C12.6914 38.75 13.5625 39.332 13.5625 40.2031C13.5625 41.1719 12.5937 41.6562 10.7539 41.6562C7.84764 41.6562 6.39451 43.4961 7.36326 46.0156C7.74998 46.8867 9.20311 47.4688 10.7539 47.4688C12.8828 47.4688 13.8515 48.1484 15.0156 50.375L16.5664 53.2812H10.3672C6.87889 53.2812 3.77733 52.7969 3.10155 52.1172C2.22655 51.2461 1.93748 44.8516 1.93748 29.1602C1.93748 10.2695 2.1328 7.16797 3.58592 5.61719C4.94139 4.07031 6.87889 3.875 22.0859 3.875C36.5234 3.875 39.332 4.07031 40.8828 5.52344ZM24.5078 26.6406C24.2187 27.8984 19.375 28.5781 19.375 27.3203C19.375 25.8672 20.6328 25.0898 22.7656 25.3828C23.832 25.5742 24.6055 26.0586 24.5078 26.6406ZM34.875 26.6406C34.875 27.5117 34.0039 28.0938 32.4531 28.0938C30.9023 28.0938 30.0312 27.5117 30.0312 26.6406C30.0312 25.7695 30.9023 25.1875 32.4531 25.1875C34.0039 25.1875 34.875 25.7695 34.875 26.6406ZM59.5781 28.5781C59.5781 30.418 58.8984 30.5156 50.8594 30.5156C42.5273 30.5156 42.1406 30.418 41.8515 28.2891C41.5586 26.1562 41.6562 26.0586 50.5703 26.3516C58.8047 26.6406 59.5781 26.8359 59.5781 28.5781ZM37.7812 32.5508C46.3047 39.8164 45.1445 51.4414 35.3594 56.1875C19.8594 63.6484 7.46092 41.3672 21.7969 31.9688C26.2539 29.0625 33.9062 29.3516 37.7812 32.5508ZM59.8672 35.0703C59.5781 37.1016 58.9961 37.2969 52.3125 37.5859C46.3047 37.7812 44.8515 37.5859 43.8828 36.2305C43.207 35.2617 42.625 34.1953 42.625 33.7109C42.625 33.3242 46.5976 32.9375 51.4414 32.9375C59.9648 32.9375 60.1601 33.0352 59.8672 35.0703ZM14.5312 35.8438C14.5312 36.3281 13.4648 36.8125 12.207 36.8125C10.8515 36.8125 9.49217 36.3281 9.20311 35.8438C8.81639 35.2617 9.88279 34.875 11.5273 34.875C13.1758 34.875 14.5312 35.2617 14.5312 35.8438ZM59.8672 41.8516C59.5781 43.8828 58.9961 44.0781 52.6015 44.3672C45.6289 44.6602 45.5312 44.6602 45.5312 42.1406C45.5312 39.7188 45.6289 39.7188 52.8945 39.7188C59.8672 39.7188 60.1601 39.8164 59.8672 41.8516ZM13.5625 44.5625C13.5625 45.0469 12.4961 45.5312 11.1406 45.5312C9.78514 45.5312 8.71873 45.0469 8.71873 44.5625C8.71873 43.9805 9.78514 43.5938 11.1406 43.5938C12.4961 43.5938 13.5625 43.9805 13.5625 44.5625ZM60.0625 48.4375C60.0625 51.0547 58.707 51.4414 50.664 51.1484C44.0781 50.8594 43.8828 50.7617 44.6601 48.6328C45.4336 46.6953 46.1133 46.5 52.7969 46.5C59.4805 46.5 60.0625 46.6953 60.0625 48.4375ZM59.8672 55.4141C59.5781 57.543 59.1914 57.6406 50.8594 57.6406C42.5273 57.6406 42.1406 57.543 41.8515 55.4141C41.5586 53.3789 41.7539 53.2812 50.8594 53.2812C59.9648 53.2812 60.1601 53.3789 59.8672 55.4141Z" fill="#8A90FF"/>
<path d="M6.87886 11.043C6.19917 11.8203 5.81246 13.9492 6.00777 15.6953L6.29683 18.8906L21.6992 19.1797C38.2656 19.4727 38.75 19.2773 38.75 14.4336C38.75 10.0742 37.3945 9.6875 22.1835 9.6875C11.0429 9.6875 7.74996 9.97656 6.87886 11.043ZM36.6171 14.7266L36.9101 17.4375H7.74996V15.2109C7.74996 13.9492 8.03902 12.5938 8.42964 12.207C8.81636 11.9141 15.2109 11.7227 22.6679 11.8203L36.3281 12.1094L36.6171 14.7266Z" fill="#8A90FF"/>
<path d="M7.84763 24.9922C5.91013 28.5781 10.1718 31.2891 14.9179 29.4492C16.9531 28.6758 16.9531 24.6055 14.9179 23.8321C12.0117 22.7656 8.81638 23.25 7.84763 24.9922ZM14.5312 26.6406C14.5312 28.1914 10.1718 28.6758 9.30076 27.2227C8.52341 26.0586 9.68747 25.1875 12.3047 25.1875C13.6601 25.1875 14.5312 25.7696 14.5312 26.6406Z" fill="#8A90FF"/>
<path d="M24.6055 32.3555C16.9531 35.7461 14.8203 45.4336 20.4414 51.7305C25.4766 57.543 32.6484 57.6406 38.4609 51.8281C41.0742 49.2109 41.6563 47.9531 41.6563 44.3672C41.6563 39.0391 38.75 34.1953 34.3906 32.3555C30.3203 30.7109 28.4805 30.7109 24.6055 32.3555ZM37.1016 36.8125C41.0742 41.1719 40.7852 46.5977 36.4258 50.957C29.7422 57.6406 19.4727 53.4766 19.375 43.9805C19.375 34.0039 30.5156 29.5469 37.1016 36.8125Z" fill="#8A90FF"/>
<path d="M26.9296 37.6836C23.9296 40.6875 25.0898 43.8828 29.4492 44.6602C30.5156 44.8516 31.4843 45.6289 31.7734 46.211C32.4531 48.3399 29.1601 48.8243 27.125 46.9844C24.414 44.5625 24.5078 47.1797 27.2226 49.9883L29.2578 52.1172L31.582 50.086C34.9726 47.1797 34.5859 44.7578 30.5156 43.0118C28.6757 42.2383 27.125 41.1719 27.125 40.6875C27.125 39.0391 29.9336 38.461 31.4843 39.7188C33.9062 41.7539 34.1953 40.1055 31.8711 37.8789C29.2578 35.4571 29.0625 35.4571 26.9296 37.6836Z" fill="#8A90FF"/>
</g>
<defs>
<clipPath id="clip0_129_2074">
<rect width="62" height="62" fill="white"/>
</clipPath>
</defs>
</svg>
