<svg width="15" height="15" viewBox="0 0 15 15" fill="none" xmlns="http://www.w3.org/2000/svg">
<path d="M4.9258 1.23041C4.72268 1.25775 4.57424 1.33197 4.42189 1.48041C4.33596 1.57026 4.30861 1.60541 4.26174 1.69526C4.23439 1.75385 4.19924 1.84369 4.18752 1.89448C4.16799 1.98432 4.16799 2.19526 4.16799 7.50388C4.16799 12.7656 4.16799 13.0273 4.18752 13.1055C4.19924 13.1523 4.23049 13.2383 4.26174 13.3008C4.30861 13.3945 4.33205 13.4258 4.42189 13.5156C4.51174 13.6055 4.54689 13.6328 4.64064 13.6797C4.85549 13.7852 4.57814 13.7734 7.50003 13.7734C10.4219 13.7734 10.1446 13.7852 10.3594 13.6797C10.4532 13.6328 10.4883 13.6055 10.5782 13.5156C10.668 13.4258 10.6915 13.3945 10.7383 13.3008C10.7696 13.2383 10.8008 13.1523 10.8125 13.1055C10.8321 13.0273 10.836 12.7656 10.836 7.49997C10.836 2.23432 10.8321 1.9726 10.8125 1.89057C10.8008 1.8476 10.7696 1.76166 10.7383 1.69916C10.6915 1.60541 10.668 1.57416 10.5782 1.48041C10.4571 1.36322 10.3438 1.29291 10.1875 1.24994L10.0977 1.2226H7.54691C6.14456 1.2226 4.96486 1.2265 4.9258 1.23041ZM8.07035 2.05463C8.09378 2.07417 8.08988 2.16401 8.06644 2.18354C8.05081 2.19916 7.98441 2.20307 7.50003 2.20307C7.01565 2.20307 6.94925 2.19916 6.93362 2.18354C6.91019 2.16401 6.90628 2.07417 6.92972 2.05463C6.94925 2.0312 8.05082 2.0312 8.07035 2.05463ZM10.2422 7.49997V11.9648H4.75783V3.03511H10.2422V7.49997ZM7.58206 12.3516C7.81253 12.3906 7.99222 12.5703 8.03128 12.8008C8.07425 13.0664 7.89847 13.332 7.63675 13.3984C7.33206 13.4805 7.02737 13.2812 6.97269 12.9648C6.9219 12.6836 7.12503 12.3984 7.40628 12.3516C7.49613 12.3398 7.49613 12.3398 7.58206 12.3516Z" fill="#8A90FF" stroke="#974AD6" stroke-width="0.00117188"/>
</svg>
