<svg width="15" height="15" viewBox="0 0 15 15" fill="none" xmlns="http://www.w3.org/2000/svg">
<path d="M7.05859 1.90625C6.73046 1.94531 6.29687 2.07422 5.98828 2.22656C4.93749 2.73438 4.21093 3.73047 4.03906 4.89062C3.99609 5.19922 4.01953 5.98047 4.08593 6.34375C4.32812 7.67188 4.95312 9.18359 5.9414 10.8398C6.41406 11.6289 7.42578 13.0938 7.49999 13.0938C7.57812 13.0938 8.54687 11.6836 9.08593 10.7891C9.47656 10.1367 10.0312 9.05469 10.2617 8.48438C10.9844 6.71875 11.1641 5.33203 10.8125 4.27344C10.3437 2.88281 9.08593 1.9375 7.63281 1.89062C7.42187 1.88281 7.16406 1.89062 7.05859 1.90625ZM7.89453 3.82422C8.33593 3.9375 8.76953 4.27344 8.95703 4.65625C9.28906 5.33594 9.17187 6.08984 8.65624 6.60547C7.74999 7.51172 6.22656 7.08984 5.90234 5.84375C5.84765 5.62109 5.84765 5.24609 5.90234 5.02344C6.05468 4.4375 6.50781 3.98047 7.09374 3.82812C7.30078 3.76953 7.67968 3.76562 7.89453 3.82422Z" fill="#8A90FF"/>
</svg>
